# WaveFront *.obj file (generated by Autodesk ATF)

mtllib bee27ce4-eff5-4db9-ab75-3ba878d8a5d6.mtl

g Body1

v 169.000000 0.000000 0.000000
v 168.352591 4.917562 0.000000
v 166.454483 9.500000 0.000000
v 163.435029 13.435029 0.000000
v 159.500000 16.454483 0.000000
v 154.917562 18.352591 0.000000
v 150.000000 19.000000 0.000000
v 145.082438 18.352591 0.000000
v 140.500000 16.454483 0.000000
v 136.564971 13.435029 0.000000
v 133.545517 9.500000 0.000000
v 131.647409 4.917562 0.000000
v 131.000000 -0.000000 0.000000
v 131.647409 -4.917562 0.000000
v 133.545517 -9.500000 0.000000
v 136.564971 -13.435029 0.000000
v 140.500000 -16.454483 0.000000
v 145.082438 -18.352591 0.000000
v 150.000000 -19.000000 0.000000
v 154.917562 -18.352591 0.000000
v 159.500000 -16.454483 0.000000
v 163.435029 -13.435029 0.000000
v 166.454483 -9.500000 0.000000
v 168.352591 -4.917562 0.000000
v 163.803848 0.000000 9.000000
v 163.333493 -3.572699 9.000000
v 161.954483 -6.901924 9.000000
v 159.760794 -9.760794 9.000000
v 156.901924 -11.954483 9.000000
v 153.572699 -13.333493 9.000000
v 150.000000 -13.803848 9.000000
v 146.427301 -13.333493 9.000000
v 143.098076 -11.954483 9.000000
v 140.239206 -9.760794 9.000000
v 138.045517 -6.901924 9.000000
v 136.666507 -3.572699 9.000000
v 136.196152 0.000000 9.000000
v 136.666507 3.572699 9.000000
v 138.045517 6.901924 9.000000
v 140.239206 9.760794 9.000000
v 143.098076 11.954483 9.000000
v 146.427301 13.333493 9.000000
v 150.000000 13.803848 9.000000
v 153.572699 13.333493 9.000000
v 156.901924 11.954483 9.000000
v 159.760794 9.760794 9.000000
v 161.954483 6.901924 9.000000
v 163.333493 3.572699 9.000000
v 19.000000 0.000000 0.000000
v 18.352591 4.917562 0.000000
v 16.454483 9.500000 0.000000
v 13.435029 13.435029 0.000000
v 9.500000 16.454483 0.000000
v 4.917562 18.352591 0.000000
v -0.000000 19.000000 0.000000
v -4.917562 18.352591 0.000000
v -9.500000 16.454483 0.000000
v -13.435029 13.435029 0.000000
v -16.454483 9.500000 0.000000
v -18.352591 4.917562 0.000000
v -19.000000 -0.000000 0.000000
v -18.352591 -4.917562 0.000000
v -16.454483 -9.500000 0.000000
v -13.435029 -13.435029 0.000000
v -9.500000 -16.454483 0.000000
v -4.917562 -18.352591 0.000000
v 0.000000 -19.000000 0.000000
v 4.917562 -18.352591 0.000000
v 9.500000 -16.454483 0.000000
v 13.435029 -13.435029 0.000000
v 16.454483 -9.500000 0.000000
v 18.352591 -4.917562 0.000000
v 13.803848 0.000000 9.000000
v 13.333493 -3.572699 9.000000
v 11.954483 -6.901924 9.000000
v 9.760794 -9.760794 9.000000
v 6.901924 -11.954483 9.000000
v 3.572699 -13.333493 9.000000
v -0.000000 -13.803848 9.000000
v -3.572699 -13.333493 9.000000
v -6.901924 -11.954483 9.000000
v -9.760794 -9.760794 9.000000
v -11.954483 -6.901924 9.000000
v -13.333493 -3.572699 9.000000
v -13.803848 0.000000 9.000000
v -13.333493 3.572699 9.000000
v -11.954483 6.901924 9.000000
v -9.760794 9.760794 9.000000
v -6.901924 11.954483 9.000000
v -3.572699 13.333493 9.000000
v 0.000000 13.803848 9.000000
v 3.572699 13.333493 9.000000
v 6.901924 11.954483 9.000000
v 9.760794 9.760794 9.000000
v 11.954483 6.901924 9.000000
v 13.333493 3.572699 9.000000
v 200.000000 -60.000000 0.000000
v -50.000000 -60.000000 0.000000
v -50.000000 -60.000000 -10.000000
v 200.000000 -60.000000 -10.000000
v -50.000000 60.000000 0.000000
v -50.000000 60.000000 -10.000000
v 200.000000 60.000000 -10.000000
v 200.000000 60.000000 0.000000
vt 0.519615 0.429401 0.000000
vt -0.519615 0.429401 0.000000
vt 0.519615 0.000000 0.000000
vt -0.519615 0.000000 0.000000
vt 0.519615 -0.429401 0.000000
vt -0.519615 -0.429401 0.000000
vt 0.519615 -0.858803 0.000000
vt -0.519615 -0.858803 0.000000
vt 0.519615 -1.288204 0.000000
vt -0.519615 -1.288204 0.000000
vt 0.519615 -1.717605 0.000000
vt -0.519615 -1.717605 0.000000
vt 0.519615 -2.147007 0.000000
vt -0.519615 -2.147007 0.000000
vt 0.519615 -2.576408 0.000000
vt -0.519615 -2.576408 0.000000
vt 0.519615 -3.005810 0.000000
vt -0.519615 -3.005810 0.000000
vt 0.519615 -3.435211 0.000000
vt -0.519615 -3.435211 0.000000
vt 0.519615 -3.864612 0.000000
vt -0.519615 -3.864612 0.000000
vt 0.519615 -4.294014 0.000000
vt -0.519615 -4.294014 0.000000
vt 0.519615 -4.723415 0.000000
vt -0.519615 -4.723415 0.000000
vt 0.519615 -5.152816 0.000000
vt -0.519615 -5.152816 0.000000
vt 0.519615 5.152816 0.000000
vt -0.519615 5.152816 0.000000
vt 0.519615 4.723415 0.000000
vt -0.519615 4.723415 0.000000
vt 0.519615 4.294014 0.000000
vt -0.519615 4.294014 0.000000
vt 0.519615 3.864612 0.000000
vt -0.519615 3.864612 0.000000
vt 0.519615 3.435211 0.000000
vt -0.519615 3.435211 0.000000
vt 0.519615 3.005810 0.000000
vt -0.519615 3.005810 0.000000
vt 0.519615 2.576408 0.000000
vt -0.519615 2.576408 0.000000
vt 0.519615 2.147007 0.000000
vt -0.519615 2.147007 0.000000
vt 0.519615 1.717605 0.000000
vt -0.519615 1.717605 0.000000
vt 0.519615 1.288204 0.000000
vt -0.519615 1.288204 0.000000
vt 0.519615 0.858803 0.000000
vt -0.519615 0.858803 0.000000
vt 1.333349 0.357270 0.000000
vt -1.333349 0.357270 0.000000
vt 1.380385 0.000000 0.000000
vt -1.380385 0.000000 0.000000
vt 1.333349 -0.357270 0.000000
vt -1.333349 -0.357270 0.000000
vt 1.195448 -0.690192 0.000000
vt -1.195448 -0.690192 0.000000
vt 0.976079 -0.976079 0.000000
vt -0.976079 -0.976079 0.000000
vt 0.690192 -1.195448 0.000000
vt -0.690192 -1.195448 0.000000
vt 0.357270 -1.333349 0.000000
vt -0.357270 -1.333349 0.000000
vt 0.000000 -1.380385 0.000000
vt -1.195448 0.690192 0.000000
vt 1.195448 0.690192 0.000000
vt -0.976079 0.976079 0.000000
vt 0.976079 0.976079 0.000000
vt -0.690192 1.195448 0.000000
vt 0.690192 1.195448 0.000000
vt -0.357270 1.333349 0.000000
vt 0.357270 1.333349 0.000000
vt 0.000000 1.380385 0.000000
vt 0.519615 0.429401 0.000000
vt -0.519615 0.429401 0.000000
vt 0.519615 0.000000 0.000000
vt -0.519615 0.000000 0.000000
vt 0.519615 -0.429401 0.000000
vt -0.519615 -0.429401 0.000000
vt 0.519615 -0.858803 0.000000
vt -0.519615 -0.858803 0.000000
vt 0.519615 -1.288204 0.000000
vt -0.519615 -1.288204 0.000000
vt 0.519615 -1.717605 0.000000
vt -0.519615 -1.717605 0.000000
vt 0.519615 -2.147007 0.000000
vt -0.519615 -2.147007 0.000000
vt 0.519615 -2.576408 0.000000
vt -0.519615 -2.576408 0.000000
vt 0.519615 -3.005810 0.000000
vt -0.519615 -3.005810 0.000000
vt 0.519615 -3.435211 0.000000
vt -0.519615 -3.435211 0.000000
vt 0.519615 -3.864612 0.000000
vt -0.519615 -3.864612 0.000000
vt 0.519615 -4.294014 0.000000
vt -0.519615 -4.294014 0.000000
vt 0.519615 -4.723415 0.000000
vt -0.519615 -4.723415 0.000000
vt 0.519615 -5.152816 0.000000
vt -0.519615 -5.152816 0.000000
vt 0.519615 5.152816 0.000000
vt -0.519615 5.152816 0.000000
vt 0.519615 4.723415 0.000000
vt -0.519615 4.723415 0.000000
vt 0.519615 4.294014 0.000000
vt -0.519615 4.294014 0.000000
vt 0.519615 3.864612 0.000000
vt -0.519615 3.864612 0.000000
vt 0.519615 3.435211 0.000000
vt -0.519615 3.435211 0.000000
vt 0.519615 3.005810 0.000000
vt -0.519615 3.005810 0.000000
vt 0.519615 2.576408 0.000000
vt -0.519615 2.576408 0.000000
vt 0.519615 2.147007 0.000000
vt -0.519615 2.147007 0.000000
vt 0.519615 1.717605 0.000000
vt -0.519615 1.717605 0.000000
vt 0.519615 1.288204 0.000000
vt -0.519615 1.288204 0.000000
vt 0.519615 0.858803 0.000000
vt -0.519615 0.858803 0.000000
vt 1.333349 0.357270 0.000000
vt -1.333349 0.357270 0.000000
vt 1.380385 0.000000 0.000000
vt -1.380385 0.000000 0.000000
vt 1.333349 -0.357270 0.000000
vt -1.333349 -0.357270 0.000000
vt 1.195448 -0.690192 0.000000
vt -1.195448 -0.690192 0.000000
vt 0.976079 -0.976079 0.000000
vt -0.976079 -0.976079 0.000000
vt 0.690192 -1.195448 0.000000
vt -0.690192 -1.195448 0.000000
vt 0.357270 -1.333349 0.000000
vt -0.357270 -1.333349 0.000000
vt -0.000000 -1.380385 0.000000
vt -1.195448 0.690192 0.000000
vt 1.195448 0.690192 0.000000
vt -0.976079 0.976079 0.000000
vt 0.976079 0.976079 0.000000
vt -0.690192 1.195448 0.000000
vt 0.690192 1.195448 0.000000
vt -0.357270 1.333349 0.000000
vt 0.357270 1.333349 0.000000
vt 0.000000 1.380385 0.000000
vt -0.500000 -12.500000 0.000000
vt 0.500000 -12.500000 0.000000
vt -0.500000 12.500000 0.000000
vt 0.500000 12.500000 0.000000
vt 1.000000 6.000000 0.000000
vt 0.000000 6.000000 0.000000
vt 1.000000 -6.000000 0.000000
vt 0.000000 -6.000000 0.000000
vt 25.000000 6.000000 0.000000
vt -0.000000 6.000000 0.000000
vt 25.000000 -6.000000 0.000000
vt 0.000000 -6.000000 0.000000
vt 1.000000 6.000000 0.000000
vt -0.000000 6.000000 0.000000
vt 1.000000 -6.000000 0.000000
vt 0.000000 -6.000000 0.000000
vt 21.835259 -0.491756 0.000000
vt 25.000000 -6.000000 0.000000
vt 21.900000 0.000000 0.000000
vt 25.000000 6.000000 0.000000
vt 21.835259 0.491756 0.000000
vt 21.645448 0.950000 0.000000
vt 21.343503 1.343503 0.000000
vt 20.950000 1.645448 0.000000
vt 20.491756 1.835259 0.000000
vt 20.000000 1.900000 0.000000
vt 19.508244 1.835259 0.000000
vt 0.000000 6.000000 0.000000
vt 5.491756 1.835259 0.000000
vt 5.000000 1.900000 0.000000
vt 4.508244 1.835259 0.000000
vt 4.050000 1.645448 0.000000
vt 3.656497 1.343503 0.000000
vt 3.354552 0.950000 0.000000
vt 3.164741 0.491756 0.000000
vt 3.100000 -0.000000 0.000000
vt 0.000000 -6.000000 0.000000
vt 3.164741 -0.491756 0.000000
vt 3.354552 -0.950000 0.000000
vt 3.656497 -1.343503 0.000000
vt 4.050000 -1.645448 0.000000
vt 4.508244 -1.835259 0.000000
vt 5.000000 -1.900000 0.000000
vt 5.491756 -1.835259 0.000000
vt 19.508244 -1.835259 0.000000
vt 20.000000 -1.900000 0.000000
vt 20.491756 -1.835259 0.000000
vt 20.950000 -1.645448 0.000000
vt 21.343503 -1.343503 0.000000
vt 21.645448 -0.950000 0.000000
vt 5.950000 -1.645448 0.000000
vt 19.050000 -1.645448 0.000000
vt 6.343503 -1.343503 0.000000
vt 18.656497 -1.343503 0.000000
vt 6.645448 -0.950000 0.000000
vt 18.354552 -0.950000 0.000000
vt 6.835259 -0.491756 0.000000
vt 18.164741 -0.491756 0.000000
vt 6.900000 0.000000 0.000000
vt 18.100000 -0.000000 0.000000
vt 6.835259 0.491756 0.000000
vt 18.164741 0.491756 0.000000
vt 6.645448 0.950000 0.000000
vt 18.354552 0.950000 0.000000
vt 6.343503 1.343503 0.000000
vt 18.656497 1.343503 0.000000
vt 5.950000 1.645448 0.000000
vt 19.050000 1.645448 0.000000
vt 0.500000 12.500000 0.000000
vt -0.500000 12.500000 0.000000
vt 0.500000 -12.500000 0.000000
vt -0.500000 -12.500000 0.000000
vn 0.083652 0.022414 0.050000
vn 0.083652 0.022414 0.050000
vn 0.086603 -0.000000 0.050000
vn 0.086603 -0.000000 0.050000
vn 0.083652 -0.022414 0.050000
vn 0.083652 -0.022414 0.050000
vn 0.075000 -0.043301 0.050000
vn 0.075000 -0.043301 0.050000
vn 0.061237 -0.061237 0.050000
vn 0.061237 -0.061237 0.050000
vn 0.043301 -0.075000 0.050000
vn 0.043301 -0.075000 0.050000
vn 0.022414 -0.083652 0.050000
vn 0.022414 -0.083652 0.050000
vn 0.000000 -0.086603 0.050000
vn 0.000000 -0.086603 0.050000
vn -0.022414 -0.083652 0.050000
vn -0.022414 -0.083652 0.050000
vn -0.043301 -0.075000 0.050000
vn -0.043301 -0.075000 0.050000
vn -0.061237 -0.061237 0.050000
vn -0.061237 -0.061237 0.050000
vn -0.075000 -0.043301 0.050000
vn -0.075000 -0.043301 0.050000
vn -0.083652 -0.022414 0.050000
vn -0.083652 -0.022414 0.050000
vn -0.086603 -0.000000 0.050000
vn -0.086603 -0.000000 0.050000
vn -0.083652 0.022414 0.050000
vn -0.083652 0.022414 0.050000
vn -0.075000 0.043301 0.050000
vn -0.075000 0.043301 0.050000
vn -0.061237 0.061237 0.050000
vn -0.061237 0.061237 0.050000
vn -0.043301 0.075000 0.050000
vn -0.043301 0.075000 0.050000
vn -0.022414 0.083652 0.050000
vn -0.022414 0.083652 0.050000
vn 0.000000 0.086603 0.050000
vn 0.000000 0.086603 0.050000
vn 0.022414 0.083652 0.050000
vn 0.022414 0.083652 0.050000
vn 0.043301 0.075000 0.050000
vn 0.043301 0.075000 0.050000
vn 0.061237 0.061237 0.050000
vn 0.061237 0.061237 0.050000
vn 0.075000 0.043301 0.050000
vn 0.075000 0.043301 0.050000
vn 0.000000 0.000000 0.100000
vn 0.000000 0.000000 0.100000
vn 0.000000 0.000000 0.100000
vn 0.000000 0.000000 0.100000
vn 0.000000 0.000000 0.100000
vn 0.000000 0.000000 0.100000
vn 0.000000 0.000000 0.100000
vn 0.000000 0.000000 0.100000
vn 0.000000 0.000000 0.100000
vn 0.000000 0.000000 0.100000
vn 0.000000 0.000000 0.100000
vn 0.000000 0.000000 0.100000
vn 0.000000 0.000000 0.100000
vn 0.000000 0.000000 0.100000
vn 0.000000 0.000000 0.100000
vn 0.000000 0.000000 0.100000
vn 0.000000 0.000000 0.100000
vn 0.000000 0.000000 0.100000
vn 0.000000 0.000000 0.100000
vn 0.000000 0.000000 0.100000
vn 0.000000 0.000000 0.100000
vn 0.000000 0.000000 0.100000
vn 0.000000 0.000000 0.100000
vn 0.000000 0.000000 0.100000
vn 0.083652 0.022414 0.050000
vn 0.083652 0.022414 0.050000
vn 0.086603 -0.000000 0.050000
vn 0.086603 -0.000000 0.050000
vn 0.083652 -0.022414 0.050000
vn 0.083652 -0.022414 0.050000
vn 0.075000 -0.043301 0.050000
vn 0.075000 -0.043301 0.050000
vn 0.061237 -0.061237 0.050000
vn 0.061237 -0.061237 0.050000
vn 0.043301 -0.075000 0.050000
vn 0.043301 -0.075000 0.050000
vn 0.022414 -0.083652 0.050000
vn 0.022414 -0.083652 0.050000
vn 0.000000 -0.086603 0.050000
vn -0.000000 -0.086603 0.050000
vn -0.022414 -0.083652 0.050000
vn -0.022414 -0.083652 0.050000
vn -0.043301 -0.075000 0.050000
vn -0.043301 -0.075000 0.050000
vn -0.061237 -0.061237 0.050000
vn -0.061237 -0.061237 0.050000
vn -0.075000 -0.043301 0.050000
vn -0.075000 -0.043301 0.050000
vn -0.083652 -0.022414 0.050000
vn -0.083652 -0.022414 0.050000
vn -0.086603 -0.000000 0.050000
vn -0.086603 -0.000000 0.050000
vn -0.083652 0.022414 0.050000
vn -0.083652 0.022414 0.050000
vn -0.075000 0.043301 0.050000
vn -0.075000 0.043301 0.050000
vn -0.061237 0.061237 0.050000
vn -0.061237 0.061237 0.050000
vn -0.043301 0.075000 0.050000
vn -0.043301 0.075000 0.050000
vn -0.022414 0.083652 0.050000
vn -0.022414 0.083652 0.050000
vn -0.000000 0.086603 0.050000
vn 0.000000 0.086603 0.050000
vn 0.022414 0.083652 0.050000
vn 0.022414 0.083652 0.050000
vn 0.043301 0.075000 0.050000
vn 0.043301 0.075000 0.050000
vn 0.061237 0.061237 0.050000
vn 0.061237 0.061237 0.050000
vn 0.075000 0.043301 0.050000
vn 0.075000 0.043301 0.050000
vn 0.000000 0.000000 0.100000
vn 0.000000 0.000000 0.100000
vn 0.000000 0.000000 0.100000
vn 0.000000 0.000000 0.100000
vn 0.000000 0.000000 0.100000
vn 0.000000 0.000000 0.100000
vn 0.000000 0.000000 0.100000
vn 0.000000 0.000000 0.100000
vn 0.000000 0.000000 0.100000
vn 0.000000 0.000000 0.100000
vn 0.000000 0.000000 0.100000
vn 0.000000 0.000000 0.100000
vn 0.000000 0.000000 0.100000
vn 0.000000 0.000000 0.100000
vn 0.000000 0.000000 0.100000
vn 0.000000 0.000000 0.100000
vn 0.000000 0.000000 0.100000
vn 0.000000 0.000000 0.100000
vn 0.000000 0.000000 0.100000
vn 0.000000 0.000000 0.100000
vn 0.000000 0.000000 0.100000
vn 0.000000 0.000000 0.100000
vn 0.000000 0.000000 0.100000
vn 0.000000 0.000000 0.100000
vn 0.000000 -0.100000 0.000000
vn 0.000000 -0.100000 0.000000
vn 0.000000 -0.100000 0.000000
vn 0.000000 -0.100000 0.000000
vn -0.100000 0.000000 0.000000
vn -0.100000 0.000000 0.000000
vn -0.100000 0.000000 0.000000
vn -0.100000 0.000000 0.000000
vn 0.000000 0.000000 -0.100000
vn 0.000000 0.000000 -0.100000
vn 0.000000 0.000000 -0.100000
vn 0.000000 0.000000 -0.100000
vn 0.100000 0.000000 0.000000
vn 0.100000 0.000000 0.000000
vn 0.100000 0.000000 0.000000
vn 0.100000 0.000000 0.000000
vn 0.000000 0.000000 0.100000
vn 0.000000 0.000000 0.100000
vn 0.000000 0.000000 0.100000
vn 0.000000 0.000000 0.100000
vn 0.000000 0.000000 0.100000
vn 0.000000 0.000000 0.100000
vn 0.000000 0.000000 0.100000
vn 0.000000 0.000000 0.100000
vn 0.000000 0.000000 0.100000
vn 0.000000 0.000000 0.100000
vn 0.000000 0.000000 0.100000
vn 0.000000 0.000000 0.100000
vn 0.000000 0.000000 0.100000
vn 0.000000 0.000000 0.100000
vn 0.000000 0.000000 0.100000
vn 0.000000 0.000000 0.100000
vn 0.000000 0.000000 0.100000
vn 0.000000 0.000000 0.100000
vn 0.000000 0.000000 0.100000
vn 0.000000 0.000000 0.100000
vn 0.000000 0.000000 0.100000
vn 0.000000 0.000000 0.100000
vn 0.000000 0.000000 0.100000
vn 0.000000 0.000000 0.100000
vn 0.000000 0.000000 0.100000
vn 0.000000 0.000000 0.100000
vn 0.000000 0.000000 0.100000
vn 0.000000 0.000000 0.100000
vn 0.000000 0.000000 0.100000
vn 0.000000 0.000000 0.100000
vn 0.000000 0.000000 0.100000
vn 0.000000 0.000000 0.100000
vn 0.000000 0.000000 0.100000
vn 0.000000 0.000000 0.100000
vn 0.000000 0.000000 0.100000
vn 0.000000 0.000000 0.100000
vn 0.000000 0.000000 0.100000
vn 0.000000 0.000000 0.100000
vn 0.000000 0.000000 0.100000
vn 0.000000 0.000000 0.100000
vn 0.000000 0.000000 0.100000
vn 0.000000 0.000000 0.100000
vn 0.000000 0.000000 0.100000
vn 0.000000 0.000000 0.100000
vn 0.000000 0.000000 0.100000
vn 0.000000 0.000000 0.100000
vn 0.000000 0.000000 0.100000
vn 0.000000 0.000000 0.100000
vn 0.000000 0.000000 0.100000
vn 0.000000 0.000000 0.100000
vn 0.000000 0.000000 0.100000
vn 0.000000 0.000000 0.100000
vn 0.000000 0.100000 0.000000
vn 0.000000 0.100000 0.000000
vn 0.000000 0.100000 0.000000
vn 0.000000 0.100000 0.000000
usemtl Steel_-_Satin
f 2/1/1 48/2/2 1/3/3
f 1/3/3 48/2/2 25/4/4
f 1/3/3 25/4/4 24/5/5
f 24/5/5 25/4/4 26/6/6
f 24/5/5 26/6/6 23/7/7
f 23/7/7 26/6/6 27/8/8
f 23/7/7 27/8/8 22/9/9
f 22/9/9 27/8/8 28/10/10
f 22/9/9 28/10/10 21/11/11
f 21/11/11 28/10/10 29/12/12
f 21/11/11 29/12/12 20/13/13
f 20/13/13 29/12/12 30/14/14
f 20/13/13 30/14/14 19/15/15
f 19/15/15 30/14/14 31/16/16
f 19/15/15 31/16/16 18/17/17
f 18/17/17 31/16/16 32/18/18
f 18/17/17 32/18/18 17/19/19
f 17/19/19 32/18/18 33/20/20
f 17/19/19 33/20/20 16/21/21
f 16/21/21 33/20/20 34/22/22
f 16/21/21 34/22/22 15/23/23
f 15/23/23 34/22/22 35/24/24
f 15/23/23 35/24/24 14/25/25
f 14/25/25 35/24/24 36/26/26
f 14/25/25 36/26/26 13/27/27
f 13/27/27 36/26/26 37/28/28
f 13/29/27 37/30/28 12/31/29
f 12/31/29 37/30/28 38/32/30
f 12/31/29 38/32/30 11/33/31
f 11/33/31 38/32/30 39/34/32
f 11/33/31 39/34/32 10/35/33
f 10/35/33 39/34/32 40/36/34
f 10/35/33 40/36/34 9/37/35
f 9/37/35 40/36/34 41/38/36
f 9/37/35 41/38/36 8/39/37
f 8/39/37 41/38/36 42/40/38
f 8/39/37 42/40/38 7/41/39
f 7/41/39 42/40/38 43/42/40
f 7/41/39 43/42/40 6/43/41
f 6/43/41 43/42/40 44/44/42
f 6/43/41 44/44/42 5/45/43
f 5/45/43 44/44/42 45/46/44
f 5/45/43 45/46/44 4/47/45
f 4/47/45 45/46/44 46/48/46
f 4/47/45 46/48/46 3/49/47
f 3/49/47 46/48/46 47/50/48
f 3/49/47 47/50/48 2/1/1
f 2/1/1 47/50/48 48/2/2
f 48/51/49 38/52/50 25/53/51
f 25/53/51 38/52/50 37/54/52
f 25/53/51 37/54/52 26/55/53
f 26/55/53 37/54/52 36/56/54
f 26/55/53 36/56/54 27/57/55
f 27/57/55 36/56/54 35/58/56
f 27/57/55 35/58/56 28/59/57
f 28/59/57 35/58/56 34/60/58
f 28/59/57 34/60/58 29/61/59
f 29/61/59 34/60/58 33/62/60
f 29/61/59 33/62/60 30/63/61
f 30/63/61 33/62/60 32/64/62
f 30/63/61 32/64/62 31/65/63
f 38/52/50 48/51/49 39/66/64
f 39/66/64 48/51/49 47/67/65
f 39/66/64 47/67/65 40/68/66
f 40/68/66 47/67/65 46/69/67
f 40/68/66 46/69/67 41/70/68
f 41/70/68 46/69/67 45/71/69
f 41/70/68 45/71/69 42/72/70
f 42/72/70 45/71/69 44/73/71
f 42/72/70 44/73/71 43/74/72
f 50/75/73 96/76/74 49/77/75
f 49/77/75 96/76/74 73/78/76
f 49/77/75 73/78/76 72/79/77
f 72/79/77 73/78/76 74/80/78
f 72/79/77 74/80/78 71/81/79
f 71/81/79 74/80/78 75/82/80
f 71/81/79 75/82/80 70/83/81
f 70/83/81 75/82/80 76/84/82
f 70/83/81 76/84/82 69/85/83
f 69/85/83 76/84/82 77/86/84
f 69/85/83 77/86/84 68/87/85
f 68/87/85 77/86/84 78/88/86
f 68/87/85 78/88/86 67/89/87
f 67/89/87 78/88/86 79/90/88
f 67/89/87 79/90/88 66/91/89
f 66/91/89 79/90/88 80/92/90
f 66/91/89 80/92/90 65/93/91
f 65/93/91 80/92/90 81/94/92
f 65/93/91 81/94/92 64/95/93
f 64/95/93 81/94/92 82/96/94
f 64/95/93 82/96/94 63/97/95
f 63/97/95 82/96/94 83/98/96
f 63/97/95 83/98/96 62/99/97
f 62/99/97 83/98/96 84/100/98
f 62/99/97 84/100/98 61/101/99
f 61/101/99 84/100/98 85/102/100
f 61/103/99 85/104/100 60/105/101
f 60/105/101 85/104/100 86/106/102
f 60/105/101 86/106/102 59/107/103
f 59/107/103 86/106/102 87/108/104
f 59/107/103 87/108/104 58/109/105
f 58/109/105 87/108/104 88/110/106
f 58/109/105 88/110/106 57/111/107
f 57/111/107 88/110/106 89/112/108
f 57/111/107 89/112/108 56/113/109
f 56/113/109 89/112/108 90/114/110
f 56/113/109 90/114/110 55/115/111
f 55/115/111 90/114/110 91/116/112
f 55/115/111 91/116/112 54/117/113
f 54/117/113 91/116/112 92/118/114
f 54/117/113 92/118/114 53/119/115
f 53/119/115 92/118/114 93/120/116
f 53/119/115 93/120/116 52/121/117
f 52/121/117 93/120/116 94/122/118
f 52/121/117 94/122/118 51/123/119
f 51/123/119 94/122/118 95/124/120
f 51/123/119 95/124/120 50/75/73
f 50/75/73 95/124/120 96/76/74
f 96/125/121 86/126/122 73/127/123
f 73/127/123 86/126/122 85/128/124
f 73/127/123 85/128/124 74/129/125
f 74/129/125 85/128/124 84/130/126
f 74/129/125 84/130/126 75/131/127
f 75/131/127 84/130/126 83/132/128
f 75/131/127 83/132/128 76/133/129
f 76/133/129 83/132/128 82/134/130
f 76/133/129 82/134/130 77/135/131
f 77/135/131 82/134/130 81/136/132
f 77/135/131 81/136/132 78/137/133
f 78/137/133 81/136/132 80/138/134
f 78/137/133 80/138/134 79/139/135
f 86/126/122 96/125/121 87/140/136
f 87/140/136 96/125/121 95/141/137
f 87/140/136 95/141/137 88/142/138
f 88/142/138 95/141/137 94/143/139
f 88/142/138 94/143/139 89/144/140
f 89/144/140 94/143/139 93/145/141
f 89/144/140 93/145/141 90/146/142
f 90/146/142 93/145/141 92/147/143
f 90/146/142 92/147/143 91/148/144
f 98/149/145 99/150/146 97/151/147
f 97/151/147 99/150/146 100/152/148
f 101/153/149 102/154/150 98/155/151
f 98/155/151 102/154/150 99/156/152
f 102/157/153 103/158/154 99/159/155
f 99/159/155 103/158/154 100/160/156
f 103/161/157 104/162/158 100/163/159
f 100/163/159 104/162/158 97/164/160
f 24/165/161 97/166/162 1/167/163
f 1/167/163 97/166/162 104/168/164
f 1/167/163 104/168/164 2/169/165
f 2/169/165 104/168/164 3/170/166
f 3/170/166 104/168/164 4/171/167
f 4/171/167 104/168/164 5/172/168
f 5/172/168 104/168/164 6/173/169
f 6/173/169 104/168/164 7/174/170
f 7/174/170 104/168/164 8/175/171
f 8/175/171 104/168/164 101/176/172
f 8/175/171 101/176/172 54/177/173
f 54/177/173 101/176/172 55/178/174
f 55/178/174 101/176/172 56/179/175
f 56/179/175 101/176/172 57/180/176
f 57/180/176 101/176/172 58/181/177
f 58/181/177 101/176/172 59/182/178
f 59/182/178 101/176/172 60/183/179
f 60/183/179 101/176/172 61/184/180
f 61/184/180 101/176/172 98/185/181
f 61/184/180 98/185/181 62/186/182
f 62/186/182 98/185/181 63/187/183
f 63/187/183 98/185/181 64/188/184
f 64/188/184 98/185/181 65/189/185
f 65/189/185 98/185/181 66/190/186
f 66/190/186 98/185/181 67/191/187
f 67/191/187 98/185/181 68/192/188
f 68/192/188 98/185/181 97/166/162
f 68/192/188 97/166/162 18/193/189
f 18/193/189 97/166/162 19/194/190
f 19/194/190 97/166/162 20/195/191
f 20/195/191 97/166/162 21/196/192
f 21/196/192 97/166/162 22/197/193
f 22/197/193 97/166/162 23/198/194
f 23/198/194 97/166/162 24/165/161
f 68/192/188 18/193/189 69/199/195
f 69/199/195 18/193/189 17/200/196
f 69/199/195 17/200/196 70/201/197
f 70/201/197 17/200/196 16/202/198
f 70/201/197 16/202/198 71/203/199
f 71/203/199 16/202/198 15/204/200
f 71/203/199 15/204/200 72/205/201
f 72/205/201 15/204/200 14/206/202
f 72/205/201 14/206/202 49/207/203
f 49/207/203 14/206/202 13/208/204
f 49/207/203 13/208/204 50/209/205
f 50/209/205 13/208/204 12/210/206
f 50/209/205 12/210/206 51/211/207
f 51/211/207 12/210/206 11/212/208
f 51/211/207 11/212/208 52/213/209
f 52/213/209 11/212/208 10/214/210
f 52/213/209 10/214/210 53/215/211
f 53/215/211 10/214/210 9/216/212
f 53/215/211 9/216/212 54/177/173
f 54/177/173 9/216/212 8/175/171
f 104/217/213 103/218/214 101/219/215
f 101/219/215 103/218/214 102/220/216

# 104 vertices
# 220 texture params
# 216 normals
# 204 facets

# 1 groups
